<svg xmlns="http://www.w3.org/2000/svg" xmlns:xlink="http://www.w3.org/1999/xlink" version="1.1" x="0px" y="0px" viewBox="0 0 100 125" enable-background="new 0 0 100 100" xml:space="preserve"><path d="M94.294,51.007c-2.905-4.205-9.241-0.065-15.946,4.318c-1.861,1.217-3.746,2.391-5.586,3.405  c0.715,0.273,1.297,0.609,1.76,0.951c1.619,1.203,2.59,3.064,2.66,5.103c0.146,4.348-3.422,6.58-6.933,8.19  c-3.472,1.594-9.032,1.771-13.938,1.926c-1.01,0.033-1.998,0.064-2.94,0.105c-4.799,0.221-8.357,1.553-8.394,1.564  c-0.162,0.061-0.327,0.09-0.491,0.09c-0.559,0-1.086-0.338-1.295-0.891c-0.271-0.715,0.085-1.515,0.799-1.785  c0.16-0.063,3.986-1.504,9.256-1.744c0.956-0.043,1.956-0.074,2.979-0.107c4.645-0.146,9.906-0.313,12.871-1.674  c3.902-1.793,5.395-3.355,5.317-5.58c-0.024-0.699-0.257-2.018-1.543-2.975c-0.834-0.619-2.287-1.187-4.706-1.012  c-0.998,0.364-1.96,0.639-2.863,0.776c-7.503,1.154-13.994,0.494-19.829-2.633c-0.453-0.244-1.023-0.595-1.699-1.007  c-5.716-3.495-19.102-11.686-31.958,1.173h-0.001c0,0.002-0.001,0.002-0.001,0.002l-6.098,6.151  c-0.497,0.502-0.795,1.406-0.694,2.104l1.838,12.565l1.114,7.615c0.194,1.324,0.862,1.723,1.244,1.844  c0.112,0.035,0.257,0.064,0.431,0.064c0.42,0,0.997-0.172,1.646-0.859c0.019-0.02,1.883-1.985,4.095-3.727  c2.801-2.207,5.226-3.281,7.412-3.281c3.352,0,7.74,1.924,12.389,3.961c5.537,2.428,11.814,5.176,17.606,5.176  c18.167,0,33.382-16.43,39.173-27.473C94.9,57.757,95.771,53.145,94.294,51.007z"/><path d="M41.255,49.179h31.49c2.345,0,4.255-1.909,4.255-4.255v-31.49c0-2.346-1.91-4.255-4.255-4.255h-31.49  C38.91,9.179,37,11.088,37,13.434v31.49C37,47.27,38.91,49.179,41.255,49.179z M44.753,24.948c0-0.458,0.373-0.829,0.831-0.829  h6.357v-6.357c0-0.459,0.371-0.829,0.83-0.829h8.459c0.459,0,0.828,0.37,0.828,0.829v6.357h6.358c0.458,0,0.83,0.371,0.83,0.829  v8.459c0,0.459-0.372,0.83-0.83,0.83h-6.358v6.358c0,0.459-0.369,0.829-0.828,0.829h-8.459c-0.459,0-0.83-0.37-0.83-0.829v-6.358  h-6.357c-0.458,0-0.831-0.371-0.831-0.83V24.948z"/><text x="0" y="115" fill="#000000" font-size="5px" font-weight="bold" font-family="'Helvetica Neue', Helvetica, Arial-Unicode, Arial, Sans-serif">Created by Milinda Courey</text><text x="0" y="120" fill="#000000" font-size="5px" font-weight="bold" font-family="'Helvetica Neue', Helvetica, Arial-Unicode, Arial, Sans-serif">from the Noun Project</text></svg>